<?xml version="1.0" encoding="UTF-8"?>
<!DOCTYPE svg PUBLIC "-//W3C//DTD SVG 1.1//EN" "http://www.w3.org/Graphics/SVG/1.1/DTD/svg11.dtd">
<svg xmlns="http://www.w3.org/2000/svg" version="1.1" width="2000px" height="1919px" style="shape-rendering:geometricPrecision; text-rendering:geometricPrecision; image-rendering:optimizeQuality; fill-rule:evenodd; clip-rule:evenodd" xmlns:xlink="http://www.w3.org/1999/xlink">
<g><path style="opacity:0.246" fill="#a93429" d="M 563.5,720.5 C 563.167,720.5 562.833,720.5 562.5,720.5C 533.185,718.508 503.519,717.841 473.5,718.5C 473.5,719.5 473.5,720.5 473.5,721.5C 471.896,720.713 471.229,719.38 471.5,717.5C 502.5,717.5 533.5,717.5 564.5,717.5C 564.737,718.791 564.404,719.791 563.5,720.5 Z"/></g>
<g><path style="opacity:0.857" fill="#bf251d" d="M 562.5,720.5 C 562.167,720.5 561.833,720.5 561.5,720.5C 547.171,719.833 532.671,719.5 518,719.5C 503.151,719.501 488.651,720.167 474.5,721.5C 474.167,721.5 473.833,721.5 473.5,721.5C 473.5,720.5 473.5,719.5 473.5,718.5C 503.519,717.841 533.185,718.508 562.5,720.5 Z"/></g>
<g><path style="opacity:1" fill="#ed0505" d="M 561.5,720.5 C 524.572,750.129 488.239,780.463 452.5,811.5C 442.914,818.083 433.914,825.416 425.5,833.5C 422.573,834.757 420.239,836.757 418.5,839.5C 401.437,852.385 384.77,865.885 368.5,880C 325.835,880.5 283.168,880.667 240.5,880.5C 239.502,903.661 239.169,926.994 239.5,950.5C 191.997,950.168 144.664,950.501 97.5,951.5C 99.8824,956.248 103.216,960.248 107.5,963.5C 108.08,965.749 109.413,967.415 111.5,968.5C 112.781,971.447 114.781,973.781 117.5,975.5C 119.882,980.248 123.216,984.248 127.5,987.5C 132.088,994.425 137.422,1000.76 143.5,1006.5C 145.785,1010.73 148.785,1014.39 152.5,1017.5C 155.723,1023.06 159.723,1028.06 164.5,1032.5C 164.843,1017.81 165.843,1003.48 167.5,989.5C 186.17,989.333 204.836,989.5 223.5,990C 224.056,990.383 224.389,990.883 224.5,991.5C 224.5,992.167 224.5,992.833 224.5,993.5C 223.167,1031.83 223.167,1070.17 224.5,1108.5C 229.205,1113.21 234.205,1117.54 239.5,1121.5C 239.829,1136.01 239.496,1150.34 238.5,1164.5C 237.778,1163.45 236.778,1162.78 235.5,1162.5C 195.27,1114.6 154.27,1067.26 112.5,1020.5C 104.296,1010.09 95.6291,1000.09 86.5,990.5C 65.8496,966.18 45.1829,941.847 24.5,917.5C 40.2707,896.409 55.6041,875.076 70.5,853.5C 74.2624,850.071 77.2624,846.071 79.5,841.5C 86.5992,833.4 92.9326,824.733 98.5,815.5C 101.647,813.687 103.647,811.02 104.5,807.5C 112.186,798.637 119.353,789.303 126,779.5C 127.865,777.217 130.032,775.384 132.5,774C 239.167,773.667 345.833,773.333 452.5,773C 463.261,765.632 473.594,757.799 483.5,749.5C 487.487,748.041 489.654,745.374 490,741.5C 484.618,734.958 479.452,728.291 474.5,721.5C 488.651,720.167 503.151,719.501 518,719.5C 532.671,719.5 547.171,719.833 561.5,720.5 Z"/></g>
<g><path style="opacity:0.471" fill="#9f3b2d" d="M 473.5,721.5 C 473.833,721.5 474.167,721.5 474.5,721.5C 479.452,728.291 484.618,734.958 490,741.5C 489.654,745.374 487.487,748.041 483.5,749.5C 485.097,747.236 487.097,745.236 489.5,743.5C 483.73,736.41 478.397,729.077 473.5,721.5 Z"/></g>
<g><path style="opacity:0.195" fill="#9a4132" d="M 483.5,749.5 C 473.594,757.799 463.261,765.632 452.5,773C 345.833,773.333 239.167,773.667 132.5,774C 130.032,775.384 127.865,777.217 126,779.5C 119.353,789.303 112.186,798.637 104.5,807.5C 112.188,795.305 120.855,783.805 130.5,773C 237.5,772.667 344.5,772.333 451.5,772C 461.116,765.385 470.45,758.385 479.5,751C 480.745,750.209 482.078,749.709 483.5,749.5 Z"/></g>
<g><path style="opacity:0.157" fill="#993b2c" d="M 561.5,720.5 C 561.833,720.5 562.167,720.5 562.5,720.5C 562.833,720.5 563.167,720.5 563.5,720.5C 526.796,751.205 489.796,781.538 452.5,811.5C 488.239,780.463 524.572,750.129 561.5,720.5 Z"/></g>
<g><path style="opacity:0.686" fill="#a21d18" d="M 521.5,808.5 C 520.341,807.544 519.174,806.544 518,805.5C 512.674,808.673 507.507,812.007 502.5,815.5C 507.049,810.548 512.383,806.548 518.5,803.5C 520.262,804.688 521.262,806.355 521.5,808.5 Z"/></g>
<g><path style="opacity:1" fill="#ed0505" d="M 521.5,808.5 C 521.343,809.873 521.51,811.207 522,812.5C 524.518,815.571 527.018,818.571 529.5,821.5C 529.259,824.034 530.259,825.7 532.5,826.5C 533.338,826.842 533.672,827.508 533.5,828.5C 535.098,832.711 537.432,836.378 540.5,839.5C 541.11,841.434 542.11,843.101 543.5,844.5C 544.732,848.728 546.565,852.728 549,856.5C 552.33,860.488 555.163,864.822 557.5,869.5C 558.357,870.425 559.357,871.092 560.5,871.5C 561.169,874.849 562.836,877.516 565.5,879.5C 565.427,881.027 566.094,882.027 567.5,882.5C 567.5,882.833 567.5,883.167 567.5,883.5C 569.746,888.727 572.746,893.394 576.5,897.5C 577.338,897.842 577.672,898.508 577.5,899.5C 578.759,903.025 580.759,906.025 583.5,908.5C 584.338,908.842 584.672,909.508 584.5,910.5C 586.1,912.571 586.6,914.905 586,917.5C 576.93,928.393 568.096,939.393 559.5,950.5C 549.238,962.603 538.738,974.603 528,986.5C 526.579,988.405 525.412,990.405 524.5,992.5C 524.5,993.167 524.167,993.5 523.5,993.5C 519.692,997.122 516.359,1001.12 513.5,1005.5C 511.086,1006.91 509.419,1008.91 508.5,1011.5C 504.216,1014.75 500.882,1018.75 498.5,1023.5C 469.865,1056.98 441.365,1090.64 413,1124.5C 411.579,1126.4 410.412,1128.4 409.5,1130.5C 400.42,1139.91 392.087,1149.91 384.5,1160.5C 367.685,1180.1 350.851,1199.76 334,1219.5C 332.579,1221.4 331.412,1223.4 330.5,1225.5C 330.5,1226.17 330.167,1226.5 329.5,1226.5C 328.504,1226.41 327.671,1226.75 327,1227.5C 321.536,1235.43 315.37,1242.76 308.5,1249.5C 297.478,1237.48 286.478,1225.48 275.5,1213.5C 275.5,1114.83 275.5,1016.17 275.5,917.5C 297.833,917.5 320.167,917.5 342.5,917.5C 342.167,998.335 342.501,1079 343.5,1159.5C 347.067,1157.44 350.234,1154.78 353,1151.5C 363.851,1139.09 374.684,1126.76 385.5,1114.5C 386.79,1113.94 387.623,1112.94 388,1111.5C 388.167,1044.16 388.667,976.831 389.5,909.5C 399.124,902.87 408.124,895.537 416.5,887.5C 428.562,879.801 439.895,871.134 450.5,861.5C 451.583,861.461 452.583,861.127 453.5,860.5C 454.167,914.833 454.833,969.167 455.5,1023.5C 464.548,1014.37 472.882,1004.7 480.5,994.5C 502.934,970.407 524.6,945.74 545.5,920.5C 550.66,917.268 550.66,913.934 545.5,910.5C 543.47,905.08 540.47,900.413 536.5,896.5C 532.012,886.695 526.345,877.695 519.5,869.5C 518.662,869.158 518.328,868.492 518.5,867.5C 516.913,863.317 514.579,859.65 511.5,856.5C 509.47,851.08 506.47,846.413 502.5,842.5C 501.662,842.158 501.328,841.492 501.5,840.5C 499.693,836.886 497.86,833.22 496,829.5C 495.241,827.937 494.074,826.937 492.5,826.5C 492.351,825.448 492.517,824.448 493,823.5C 496.358,820.969 499.524,818.302 502.5,815.5C 507.507,812.007 512.674,808.673 518,805.5C 519.174,806.544 520.341,807.544 521.5,808.5 Z"/></g>
<g><path style="opacity:0.412" fill="#a13e31" d="M 104.5,807.5 C 103.647,811.02 101.647,813.687 98.5,815.5C 99.7376,812.262 101.738,809.596 104.5,807.5 Z"/></g>
<g><path style="opacity:0.059" fill="#a1221b" d="M 521.5,808.5 C 524.916,812.323 527.582,816.657 529.5,821.5C 527.018,818.571 524.518,815.571 522,812.5C 521.51,811.207 521.343,809.873 521.5,808.5 Z"/></g>
<g><path style="opacity:0.553" fill="#9c1612" d="M 502.5,815.5 C 499.524,818.302 496.358,820.969 493,823.5C 492.517,824.448 492.351,825.448 492.5,826.5C 491.414,826.38 490.747,825.713 490.5,824.5C 493.924,820.745 497.924,817.745 502.5,815.5 Z"/></g>
<g><path style="opacity:0.145" fill="#a0231b" d="M 529.5,821.5 C 531.25,822.659 532.25,824.326 532.5,826.5C 530.259,825.7 529.259,824.034 529.5,821.5 Z"/></g>
<g><path style="opacity:0.147" fill="#963e2d" d="M 452.5,811.5 C 447.362,816.468 442.029,821.301 436.5,826C 433.122,829.015 429.456,831.515 425.5,833.5C 433.914,825.416 442.914,818.083 452.5,811.5 Z"/></g>
<g><path style="opacity:0.608" fill="#a41d18" d="M 492.5,826.5 C 494.074,826.937 495.241,827.937 496,829.5C 497.86,833.22 499.693,836.886 501.5,840.5C 500.206,839.71 499.039,838.71 498,837.5C 496.156,833.811 494.322,830.145 492.5,826.5 Z"/></g>
<g><path style="opacity:0.369" fill="#a14133" d="M 98.5,815.5 C 92.9326,824.733 86.5992,833.4 79.5,841.5C 85.0674,832.267 91.4008,823.6 98.5,815.5 Z"/></g>
<g><path style="opacity:0.31" fill="#95251a" d="M 533.5,828.5 C 536.948,831.316 539.282,834.983 540.5,839.5C 537.432,836.378 535.098,832.711 533.5,828.5 Z"/></g>
<g><path style="opacity:0.055" fill="#973c31" d="M 425.5,833.5 C 423.786,836.213 421.453,838.213 418.5,839.5C 420.239,836.757 422.573,834.757 425.5,833.5 Z"/></g>
<g><path style="opacity:0.325" fill="#92261b" d="M 540.5,839.5 C 542.727,840.401 543.727,842.067 543.5,844.5C 542.11,843.101 541.11,841.434 540.5,839.5 Z"/></g>
<g><path style="opacity:0.549" fill="#a21e19" d="M 502.5,842.5 C 506.47,846.413 509.47,851.08 511.5,856.5C 507.493,852.488 504.493,847.821 502.5,842.5 Z"/></g>
<g><path style="opacity:0.361" fill="#9f4234" d="M 79.5,841.5 C 77.2624,846.071 74.2624,850.071 70.5,853.5C 72.7376,848.929 75.7376,844.929 79.5,841.5 Z"/></g>
<g><path style="opacity:0.227" fill="#a42115" d="M 543.5,844.5 C 549.889,852.922 555.556,861.922 560.5,871.5C 559.357,871.092 558.357,870.425 557.5,869.5C 555.163,864.822 552.33,860.488 549,856.5C 546.565,852.728 544.732,848.728 543.5,844.5 Z"/></g>
<g><path style="opacity:0.98" fill="#ed0504" d="M 1861.5,861.5 C 1874.21,861.152 1886.88,861.652 1899.5,863C 1919.37,866.33 1933.87,876.83 1943,894.5C 1944.16,898.123 1945.16,901.789 1946,905.5C 1946.82,919.075 1946.66,932.575 1945.5,946C 1928.5,946.667 1911.5,946.667 1894.5,946C 1894,945.5 1893.5,945 1893,944.5C 1892.67,933.5 1892.33,922.5 1892,911.5C 1889.25,900.864 1882.41,897.03 1871.5,900C 1866.33,901.167 1863.17,904.333 1862,909.5C 1861.33,918.5 1861.33,927.5 1862,936.5C 1864.7,944.733 1869.87,950.9 1877.5,955C 1894.15,962.987 1910.15,971.987 1925.5,982C 1936.06,991.289 1942.89,1002.79 1946,1016.5C 1948.28,1032.57 1947.95,1048.57 1945,1064.5C 1939.62,1080.22 1929.12,1091.05 1913.5,1097C 1891.37,1103.55 1869.04,1104.22 1846.5,1099C 1824.99,1093.16 1812.16,1079.33 1808,1057.5C 1807.33,1044.5 1807.33,1031.5 1808,1018.5C 1816.76,1017.84 1825.59,1017.51 1834.5,1017.5C 1843.41,1017.51 1852.24,1017.84 1861,1018.5C 1861.33,1029.5 1861.67,1040.5 1862,1051.5C 1864.97,1063.57 1872.47,1067.74 1884.5,1064C 1887.33,1062.5 1889.5,1060.33 1891,1057.5C 1892.55,1048.23 1892.89,1038.9 1892,1029.5C 1890.26,1020.53 1885.43,1013.7 1877.5,1009C 1861.18,1000.51 1845.18,991.507 1829.5,982C 1817.8,972.091 1810.63,959.591 1808,944.5C 1807.33,931.833 1807.33,919.167 1808,906.5C 1811.92,887.246 1823.08,874.079 1841.5,867C 1848.14,864.581 1854.81,862.748 1861.5,861.5 Z"/></g>
<g><path style="opacity:0.576" fill="#9f2019" d="M 511.5,856.5 C 514.579,859.65 516.913,863.317 518.5,867.5C 515.052,864.684 512.718,861.017 511.5,856.5 Z"/></g>
<g><path style="opacity:0.981" fill="#ed0504" d="M 631.5,863.5 C 654.836,863.333 678.169,863.5 701.5,864C 757.692,866.78 779.859,895.947 768,951.5C 764.035,965.268 755.535,975.101 742.5,981C 754.091,985.59 761.924,993.757 766,1005.5C 767.628,1036.46 767.962,1067.46 767,1098.5C 766.5,1099 766,1099.5 765.5,1100C 748.5,1100.67 731.5,1100.67 714.5,1100C 714,1099.5 713.5,1099 713,1098.5C 712.667,1068.5 712.333,1038.5 712,1008.5C 710.5,1005.67 708.333,1003.5 705.5,1002C 697.905,1000.64 690.238,1000.14 682.5,1000.5C 682.667,1033.17 682.5,1065.84 682,1098.5C 681.5,1099 681,1099.5 680.5,1100C 664.167,1100.67 647.833,1100.67 631.5,1100C 631,1099.5 630.5,1099 630,1098.5C 629.333,1020.83 629.333,943.167 630,865.5C 630.717,864.956 631.217,864.289 631.5,863.5 Z M 682.5,902.5 C 689.175,902.334 695.842,902.5 702.5,903C 708.588,904.09 712.421,907.59 714,913.5C 714.667,925.833 714.667,938.167 714,950.5C 711.974,957.19 707.474,961.023 700.5,962C 694.509,962.499 688.509,962.666 682.5,962.5C 682.5,942.5 682.5,922.5 682.5,902.5 Z"/></g>
<g><path style="opacity:0.976" fill="#ed0504" d="M 800.5,863.5 C 834.168,863.333 867.835,863.5 901.5,864C 902,864.5 902.5,865 903,865.5C 903.667,877.167 903.667,888.833 903,900.5C 902.5,901 902,901.5 901.5,902C 885.17,902.5 868.837,902.667 852.5,902.5C 852.5,921.5 852.5,940.5 852.5,959.5C 867.837,959.333 883.17,959.5 898.5,960C 899,960.5 899.5,961 900,961.5C 900.821,973.409 900.654,985.243 899.5,997C 883.837,997.5 868.17,997.667 852.5,997.5C 852.5,1018.83 852.5,1040.17 852.5,1061.5C 869.503,1061.33 886.503,1061.5 903.5,1062C 904,1062.5 904.5,1063 905,1063.5C 905.667,1075.17 905.667,1086.83 905,1098.5C 904.5,1099 904,1099.5 903.5,1100C 869.167,1100.67 834.833,1100.67 800.5,1100C 800,1099.5 799.5,1099 799,1098.5C 798.333,1020.83 798.333,943.167 799,865.5C 799.717,864.956 800.217,864.289 800.5,863.5 Z"/></g>
<g><path style="opacity:0.98" fill="#ed0504" d="M 936.5,863.5 C 959.836,863.333 983.169,863.5 1006.5,864C 1031.07,863.874 1051.24,873.04 1067,891.5C 1072.59,900.012 1075.92,909.346 1077,919.5C 1077.67,961.167 1077.67,1002.83 1077,1044.5C 1071.92,1074.92 1054.08,1092.75 1023.5,1098C 1017.21,1099.02 1010.87,1099.69 1004.5,1100C 981.833,1100.67 959.167,1100.67 936.5,1100C 936,1099.5 935.5,1099 935,1098.5C 934.333,1020.83 934.333,943.167 935,865.5C 935.717,864.956 936.217,864.289 936.5,863.5 Z M 987.5,903.5 C 995.238,903.144 1002.9,903.644 1010.5,905C 1015.57,906.406 1019.07,909.572 1021,914.5C 1022.15,936.939 1022.65,959.439 1022.5,982C 1022.65,1004.56 1022.15,1027.06 1021,1049.5C 1019.1,1054.4 1015.6,1057.57 1010.5,1059C 1002.9,1060.36 995.238,1060.86 987.5,1060.5C 987.5,1008.17 987.5,955.833 987.5,903.5 Z"/></g>
<g><path style="opacity:0.981" fill="#ed0504" d="M 1097.5,863.5 C 1114.17,863.5 1130.83,863.5 1147.5,863.5C 1153.91,914.894 1160.75,966.228 1168,1017.5C 1175.97,966.178 1183.81,914.844 1191.5,863.5C 1208.5,863.5 1225.5,863.5 1242.5,863.5C 1250.29,914.497 1258.12,965.497 1266,1016.5C 1273.4,965.663 1280.23,914.663 1286.5,863.5C 1303.17,863.333 1319.84,863.5 1336.5,864C 1337.89,864.956 1338.56,866.289 1338.5,868C 1324.34,945.484 1310.34,1022.98 1296.5,1100.5C 1276.92,1100.83 1257.42,1100.49 1238,1099.5C 1231.09,1052.82 1224.09,1006.15 1217,959.5C 1209.97,1006.53 1202.8,1053.53 1195.5,1100.5C 1175.83,1100.5 1156.17,1100.5 1136.5,1100.5C 1123.09,1023.13 1109.43,945.8 1095.5,868.5C 1095.44,866.486 1096.1,864.819 1097.5,863.5 Z"/></g>
<g><path style="opacity:0.98" fill="#ed0504" d="M 1388.5,863.5 C 1408.23,862.853 1427.73,863.52 1447,865.5C 1463.56,942.154 1480.06,1018.82 1496.5,1095.5C 1496.38,1096.89 1496.05,1098.23 1495.5,1099.5C 1478.51,1100.5 1461.51,1100.83 1444.5,1100.5C 1441.82,1082.11 1438.82,1063.77 1435.5,1045.5C 1423.52,1044.5 1411.52,1044.17 1399.5,1044.5C 1396.28,1063.13 1393.28,1081.8 1390.5,1100.5C 1373.83,1100.67 1357.16,1100.5 1340.5,1100C 1339.2,1099.2 1338.53,1098.03 1338.5,1096.5C 1355.43,1018.87 1372.09,941.207 1388.5,863.5 Z M 1416.5,938.5 C 1417.69,938.97 1418.36,939.97 1418.5,941.5C 1422.06,963.199 1425.73,984.865 1429.5,1006.5C 1421.47,1006.83 1413.47,1006.5 1405.5,1005.5C 1409.71,983.259 1413.37,960.926 1416.5,938.5 Z"/></g>
<g><path style="opacity:0.978" fill="#ed0504" d="M 1496.5,863.5 C 1513.5,863.5 1530.5,863.5 1547.5,863.5C 1555.9,917.891 1564.73,972.224 1574,1026.5C 1583.6,972.238 1592.77,917.905 1601.5,863.5C 1618.17,863.333 1634.84,863.5 1651.5,864C 1652.57,864.739 1653.24,865.739 1653.5,867C 1636.67,944.498 1619.83,1022 1603,1099.5C 1593.41,1100.16 1583.74,1100.49 1574,1100.5C 1564.26,1100.49 1554.59,1100.16 1545,1099.5C 1528.48,1022.09 1511.65,944.752 1494.5,867.5C 1495.18,866.14 1495.85,864.807 1496.5,863.5 Z"/></g>
<g><path style="opacity:0.976" fill="#ed0504" d="M 1678.5,863.5 C 1712.17,863.333 1745.83,863.5 1779.5,864C 1780,864.5 1780.5,865 1781,865.5C 1781.67,877.167 1781.67,888.833 1781,900.5C 1780.5,901 1780,901.5 1779.5,902C 1763.17,902.5 1746.84,902.667 1730.5,902.5C 1730.5,921.5 1730.5,940.5 1730.5,959.5C 1745.84,959.333 1761.17,959.5 1776.5,960C 1777,960.5 1777.5,961 1778,961.5C 1778.82,973.409 1778.65,985.243 1777.5,997C 1761.84,997.5 1746.17,997.667 1730.5,997.5C 1730.5,1018.83 1730.5,1040.17 1730.5,1061.5C 1747.5,1061.33 1764.5,1061.5 1781.5,1062C 1782,1062.5 1782.5,1063 1783,1063.5C 1783.67,1075.17 1783.67,1086.83 1783,1098.5C 1782.5,1099 1782,1099.5 1781.5,1100C 1747.17,1100.67 1712.83,1100.67 1678.5,1100C 1678,1099.5 1677.5,1099 1677,1098.5C 1676.33,1020.83 1676.33,943.167 1677,865.5C 1677.72,864.956 1678.22,864.289 1678.5,863.5 Z"/></g>
<g><path style="opacity:0.078" fill="#93231c" d="M 560.5,871.5 C 562.95,873.629 564.617,876.296 565.5,879.5C 562.836,877.516 561.169,874.849 560.5,871.5 Z"/></g>
<g><path style="opacity:0.435" fill="#a01f1a" d="M 450.5,861.5 C 439.895,871.134 428.562,879.801 416.5,887.5C 427.465,878.351 438.798,869.684 450.5,861.5 Z"/></g>
<g><path style="opacity:0.805" fill="#b1130f" d="M 480.5,994.5 C 472.882,1004.7 464.548,1014.37 455.5,1023.5C 454.833,969.167 454.167,914.833 453.5,860.5C 452.583,861.127 451.583,861.461 450.5,861.5C 451.708,858.956 453.708,857.622 456.5,857.5C 456.333,911.834 456.5,966.168 457,1020.5C 464.248,1012.31 471.248,1003.98 478,995.5C 478.671,994.748 479.504,994.414 480.5,994.5 Z"/></g>
<g><path style="opacity:0.377" fill="#983a2c" d="M 418.5,839.5 C 401.982,854.179 384.982,868.346 367.5,882C 325.501,882.5 283.501,882.667 241.5,882.5C 241.831,906.006 241.498,929.339 240.5,952.5C 240.5,928.5 240.5,904.5 240.5,880.5C 283.168,880.667 325.835,880.5 368.5,880C 384.77,865.885 401.437,852.385 418.5,839.5 Z"/></g>
<g><path style="opacity:0.443" fill="#84322a" d="M 565.5,879.5 C 566.906,879.973 567.573,880.973 567.5,882.5C 566.094,882.027 565.427,881.027 565.5,879.5 Z"/></g>
<g><path style="opacity:0.365" fill="#9d1f1a" d="M 519.5,869.5 C 526.345,877.695 532.012,886.695 536.5,896.5C 530.086,888.014 524.42,879.014 519.5,869.5 Z"/></g>
<g><path style="opacity:0.088" fill="#981f1a" d="M 567.5,883.5 C 571.47,887.413 574.47,892.08 576.5,897.5C 572.746,893.394 569.746,888.727 567.5,883.5 Z"/></g>
<g><path style="opacity:0.482" fill="#a41d17" d="M 536.5,896.5 C 540.47,900.413 543.47,905.08 545.5,910.5C 541.506,906.521 538.506,901.855 536.5,896.5 Z"/></g>
<g><path style="opacity:0.165" fill="#8d1512" d="M 577.5,899.5 C 580.277,901.951 582.277,904.951 583.5,908.5C 580.759,906.025 578.759,903.025 577.5,899.5 Z"/></g>
<g><path style="opacity:0.35" fill="#921d17" d="M 344.5,916.5 C 343.833,916.5 343.167,916.5 342.5,916.5C 319.5,916.5 296.5,916.5 273.5,916.5C 273.866,915.305 274.699,914.639 276,914.5C 295.767,914.404 315.6,914.571 335.5,915C 338.695,915.181 341.695,915.681 344.5,916.5 Z"/></g>
<g><path style="opacity:0.529" fill="#9d1f18" d="M 545.5,910.5 C 550.66,913.934 550.66,917.268 545.5,920.5C 545.92,918.906 546.586,917.406 547.5,916C 546.68,914.2 546.014,912.366 545.5,910.5 Z"/></g>
<g><path style="opacity:0.573" fill="#db0706" d="M 273.5,916.5 C 296.5,916.5 319.5,916.5 342.5,916.5C 342.5,916.833 342.5,917.167 342.5,917.5C 320.167,917.5 297.833,917.5 275.5,917.5C 275.5,1016.17 275.5,1114.83 275.5,1213.5C 274.833,1213.17 274.167,1212.83 273.5,1212.5C 273.5,1113.83 273.5,1015.17 273.5,916.5 Z"/></g>
<g><path style="opacity:0.118" fill="#941e1a" d="M 584.5,910.5 C 587.332,912.407 588.166,915.073 587,918.5C 578.343,929.653 569.176,940.32 559.5,950.5C 568.096,939.393 576.93,928.393 586,917.5C 586.6,914.905 586.1,912.571 584.5,910.5 Z"/></g>
<g><path style="opacity:0.49" fill="#9e1d19" d="M 545.5,920.5 C 524.6,945.74 502.934,970.407 480.5,994.5C 491.433,981.059 502.599,967.726 514,954.5C 524.055,942.617 534.555,931.284 545.5,920.5 Z"/></g>
<g><path style="opacity:0.949" fill="#be2519" d="M 240.5,880.5 C 240.5,904.5 240.5,928.5 240.5,952.5C 193.5,952.5 146.5,952.5 99.5,952.5C 99.1583,951.662 98.4916,951.328 97.5,951.5C 144.664,950.501 191.997,950.168 239.5,950.5C 239.169,926.994 239.502,903.661 240.5,880.5 Z"/></g>
<g><path style="opacity:0.065" fill="#9b3b2d" d="M 97.5,951.5 C 98.4916,951.328 99.1583,951.662 99.5,952.5C 102.253,956.179 104.919,959.845 107.5,963.5C 103.216,960.248 99.8824,956.248 97.5,951.5 Z"/></g>
<g><path style="opacity:0.19" fill="#9f3f2e" d="M 70.5,853.5 C 55.6041,875.076 40.2707,896.409 24.5,917.5C 45.1829,941.847 65.8496,966.18 86.5,990.5C 65.8941,967.72 45.3941,944.72 25,921.5C 24.2189,920.271 23.7189,918.938 23.5,917.5C 38.1983,895.429 53.8649,874.095 70.5,853.5 Z"/></g>
<g><path style="opacity:1" fill="#cd0c09" d="M 342.5,916.5 C 343.167,916.5 343.833,916.5 344.5,916.5C 344.5,996.833 344.5,1077.17 344.5,1157.5C 343.662,1157.84 343.328,1158.51 343.5,1159.5C 342.501,1079 342.167,998.335 342.5,917.5C 342.5,917.167 342.5,916.833 342.5,916.5 Z"/></g>
<g><path style="opacity:0.639" fill="#a33628" d="M 107.5,963.5 C 109.587,964.585 110.92,966.251 111.5,968.5C 109.413,967.415 108.08,965.749 107.5,963.5 Z"/></g>
<g><path style="opacity:0.149" fill="#941c16" d="M 559.5,950.5 C 551.905,960.606 544.072,970.606 536,980.5C 532.374,984.799 528.541,988.799 524.5,992.5C 525.412,990.405 526.579,988.405 528,986.5C 538.738,974.603 549.238,962.603 559.5,950.5 Z"/></g>
<g><path style="opacity:0.173" fill="#9d3c2f" d="M 111.5,968.5 C 114.19,970.193 116.19,972.527 117.5,975.5C 114.781,973.781 112.781,971.447 111.5,968.5 Z"/></g>
<g><path style="opacity:0.57" fill="#b3120e" d="M 416.5,887.5 C 408.124,895.537 399.124,902.87 389.5,909.5C 388.667,976.831 388.167,1044.16 388,1111.5C 387.623,1112.94 386.79,1113.94 385.5,1114.5C 385.5,1114.17 385.5,1113.83 385.5,1113.5C 385.987,1112.53 386.487,1111.53 387,1110.5C 387.167,1043.16 387.667,975.831 388.5,908.5C 397.87,901.451 407.204,894.451 416.5,887.5 Z"/></g>
<g><path style="opacity:0.369" fill="#9a3b2b" d="M 117.5,975.5 C 121.784,978.752 125.118,982.752 127.5,987.5C 123.216,984.248 119.882,980.248 117.5,975.5 Z"/></g>
<g><path style="opacity:0.649" fill="#b63425" d="M 224.5,991.5 C 224.389,990.883 224.056,990.383 223.5,990C 204.836,989.5 186.17,989.333 167.5,989.5C 167.5,989.167 167.5,988.833 167.5,988.5C 186.501,987.158 205.501,987.324 224.5,989C 225.774,989.977 225.774,990.811 224.5,991.5 Z"/></g>
<g><path style="opacity:0.451" fill="#9d3a2c" d="M 127.5,987.5 C 133.578,993.242 138.912,999.575 143.5,1006.5C 137.422,1000.76 132.088,994.425 127.5,987.5 Z"/></g>
<g><path style="opacity:0.345" fill="#9b3f2d" d="M 86.5,990.5 C 95.6291,1000.09 104.296,1010.09 112.5,1020.5C 104.916,1012.74 97.416,1004.74 90,996.5C 88.5787,994.595 87.412,992.595 86.5,990.5 Z"/></g>
<g><path style="opacity:0.056" fill="#a43529" d="M 167.5,988.5 C 167.5,988.833 167.5,989.167 167.5,989.5C 165.843,1003.48 164.843,1017.81 164.5,1032.5C 159.723,1028.06 155.723,1023.06 152.5,1017.5C 155.984,1021.09 159.484,1024.76 163,1028.5C 163.5,1015.17 163.667,1001.84 163.5,988.5C 165.139,988.074 166.472,988.074 167.5,988.5 Z"/></g>
<g><path style="opacity:0.055" fill="#961b17" d="M 523.5,993.5 C 521.291,998.381 517.957,1002.38 513.5,1005.5C 516.359,1001.12 519.692,997.122 523.5,993.5 Z"/></g>
<g><path style="opacity:0.039" fill="#931a16" d="M 513.5,1005.5 C 512.753,1008.36 511.086,1010.36 508.5,1011.5C 509.419,1008.91 511.086,1006.91 513.5,1005.5 Z"/></g>
<g><path style="opacity:0.156" fill="#973829" d="M 143.5,1006.5 C 147.215,1009.61 150.215,1013.27 152.5,1017.5C 148.785,1014.39 145.785,1010.73 143.5,1006.5 Z"/></g>
<g><path style="opacity:0.145" fill="#9c1c16" d="M 508.5,1011.5 C 506.118,1016.25 502.784,1020.25 498.5,1023.5C 500.882,1018.75 504.216,1014.75 508.5,1011.5 Z"/></g>
<g><path style="opacity:0.737" fill="#bc2217" d="M 224.5,993.5 C 224.937,1030.83 224.937,1068.16 224.5,1105.5C 224.5,1106.5 224.5,1107.5 224.5,1108.5C 223.167,1070.17 223.167,1031.83 224.5,993.5 Z"/></g>
<g><path style="opacity:0.098" fill="#961c17" d="M 498.5,1023.5 C 469.904,1060.09 440.238,1095.76 409.5,1130.5C 410.412,1128.4 411.579,1126.4 413,1124.5C 441.365,1090.64 469.865,1056.98 498.5,1023.5 Z"/></g>
<g><path style="opacity:0.353" fill="#9f3c2d" d="M 112.5,1020.5 C 154.27,1067.26 195.27,1114.6 235.5,1162.5C 204.035,1126.98 172.535,1091.31 141,1055.5C 131.264,1043.94 121.764,1032.27 112.5,1020.5 Z"/></g>
<g><path style="opacity:0.907" fill="#ce1914" d="M 239.5,1121.5 C 240.826,1136.01 240.826,1150.67 239.5,1165.5C 238.893,1165.38 238.56,1165.04 238.5,1164.5C 239.496,1150.34 239.829,1136.01 239.5,1121.5 Z"/></g>
<g><path style="opacity:0.427" fill="#a0372a" d="M 224.5,1105.5 C 229.18,1111.34 234.68,1116.34 241,1120.5C 241.833,1136.51 241.666,1152.51 240.5,1168.5C 238.086,1167.09 236.419,1165.09 235.5,1162.5C 236.778,1162.78 237.778,1163.45 238.5,1164.5C 238.56,1165.04 238.893,1165.38 239.5,1165.5C 240.826,1150.67 240.826,1136.01 239.5,1121.5C 234.205,1117.54 229.205,1113.21 224.5,1108.5C 224.5,1107.5 224.5,1106.5 224.5,1105.5 Z"/></g>
<g><path style="opacity:0.733" fill="#9f1c17" d="M 385.5,1113.5 C 385.5,1113.83 385.5,1114.17 385.5,1114.5C 374.684,1126.76 363.851,1139.09 353,1151.5C 350.234,1154.78 347.067,1157.44 343.5,1159.5C 343.328,1158.51 343.662,1157.84 344.5,1157.5C 358.216,1142.79 371.883,1128.12 385.5,1113.5 Z"/></g>
<g><path style="opacity:0.082" fill="#941f19" d="M 409.5,1130.5 C 408.588,1132.6 407.421,1134.6 406,1136.5C 399.287,1145.04 392.121,1153.04 384.5,1160.5C 392.087,1149.91 400.42,1139.91 409.5,1130.5 Z"/></g>
<g><path style="opacity:0.247" fill="#971f18" d="M 384.5,1160.5 C 367.247,1182.76 349.247,1204.42 330.5,1225.5C 331.412,1223.4 332.579,1221.4 334,1219.5C 350.851,1199.76 367.685,1180.1 384.5,1160.5 Z"/></g>
<g><path style="opacity:0.306" fill="#9b1b16" d="M 273.5,1212.5 C 274.167,1212.83 274.833,1213.17 275.5,1213.5C 286.478,1225.48 297.478,1237.48 308.5,1249.5C 315.37,1242.76 321.536,1235.43 327,1227.5C 327.671,1226.75 328.504,1226.41 329.5,1226.5C 324.907,1232.94 320.073,1239.27 315,1245.5C 313.235,1247.77 311.068,1249.44 308.5,1250.5C 306.971,1250.47 305.804,1249.8 305,1248.5C 294.269,1236.61 283.769,1224.61 273.5,1212.5 Z"/></g>
</svg>
